<?xml version="1.0" ?><svg height="128" viewBox="0 0 128 128" width="128" xmlns="http://www.w3.org/2000/svg"><defs><style>.cls-1{fill:#79c651;}.cls-2{fill:none;stroke:#252d32;stroke-linecap:round;stroke-linejoin:round;stroke-width:3px;}.cls-3{fill:#252d32;}.cls-4{fill:#ffc960;}</style></defs><title/><g id="Icons"><polygon class="cls-1" points="31 121 21 125 14 95 24 92 31 121"/><path class="cls-2" d="M40.5,34.5h.89a2.12,2.12,0,0,0,2.11-2.11V29.67c0-2.72,1-4,2.38-4.17l3.62,0"/><path class="cls-2" d="M22.5,29.5c-1.81-7.44.58-18.95,10.58-20.95"/><path class="cls-2" d="M61.08,27.55c1-3,0-11-1-12"/><path class="cls-2" d="M59.11,10.42C54,10.42,52.6,6.36,45.62,5,36.45,3.23,33.08,8.55,33.08,8.55"/><path class="cls-2" d="M12.5,83.5v-12c0-9.69,4.87-14.58,14-18,3.74-1.4,7-2.78,7-7v-1"/><line class="cls-2" x1="25.5" x2="25.5" y1="78.5" y2="83.5"/><path class="cls-2" d="M45.57,47.91a10.33,10.33,0,0,1-3.55.68c-6.09,0-13.52-6.52-13.52-14.79V27.31a12.55,12.55,0,0,1,1.3-5.75A8.11,8.11,0,0,1,36,16.87c6.52-.9,21.69,8.9,24-6.42"/><line class="cls-2" x1="55.5" x2="55.5" y1="18.5" y2="32.5"/><path class="cls-2" d="M47.12,57.72a14.55,14.55,0,0,1-4.62.78c-4.49,0-9.71-2.33-11.12-6.34"/><circle class="cls-3" cx="36.08" cy="29.55" r="1.5"/><circle class="cls-3" cx="48.08" cy="29.55" r="1.5"/><path class="cls-2" d="M39,40.53a5.38,5.38,0,0,0,6,0"/><line class="cls-2" x1="34.5" x2="38.5" y1="25.5" y2="25.5"/><path class="cls-4" d="M89,106H77.63c3.45-2.19,3.36-5.33,1.37-9C66.22,90.27,51,80.81,47,84c1-6,6.15-8,11-9,3,6,9.45,6.16,14.72,1A16.28,16.28,0,0,1,89,92.28Z"/><path class="cls-2" d="M114.5,83.5V71.57c0-11.5-8.4-15-14-17-3.75-1.35-7-2.71-7-6.78V47.5"/><line class="cls-2" x1="101.5" x2="101.5" y1="78.5" y2="83.5"/><path class="cls-2" d="M74.5,33.5V26.61S83.32,24.39,87.82,18c4.51,5.79,13.52,8.66,13.52,8.66l-.23,6.58c0,8-7.32,15.53-13.3,15.53a9.6,9.6,0,0,1-4.46-1.23"/><path class="cls-2" d="M81.74,62A12,12,0,0,0,87.5,63.5a11.71,11.71,0,0,0,11.15-8.07"/><path class="cls-2" d="M111.5,53.5a7.43,7.43,0,0,0-5-8,8.08,8.08,0,0,0,1.77-7c-.32-1.71-.35-4.35-.77-6-1.1-4.48.64-5.67,0-11-.79-6.5-6.75-16.39-20-14"/><path class="cls-2" d="M68.33,29.94c.07-2.65-.85-4.29-.36-8.44.77-6.5,6.61-16.39,19.58-14"/><path class="cls-2" d="M87.61,35.55c-1.16,0-1.11-.95-1.11-2.11V31.75c0-2.71-1.75-3.25-2.75-3.25H81.5"/><circle class="cls-3" cx="93.08" cy="32.55" r="1.5"/><circle class="cls-3" cx="81.08" cy="32.55" r="1.5"/><path class="cls-2" d="M90,40.82a5.06,5.06,0,0,1-5,0"/><line class="cls-2" x1="94.5" x2="91.5" y1="28.5" y2="28.5"/><path class="cls-1" d="M49.22,52.37c0-6.55,1.42-13.39,7.13-14.16,2.43-4.15,9.35-3.87,14.28-2s10.68,7.78,9,17.91c-.44,2.68-2.66,4.37-3.54,4.1l-.46-5.37c-6-.14-11.19-3.93-17.1-7.82-5.7.21-5.39,6.81-6.31,11.87C51.53,56.94,49.84,55.78,49.22,52.37Z"/><path class="cls-2" d="M64.37,60.45a1.16,1.16,0,0,0,1.13-1.13V55.5"/><path class="cls-2" d="M50.61,77.88c.93-.43,1.93-.83,3-1.22,3.22-1.17,6-2.35,6-5.89"/><path class="cls-2" d="M88.5,91.43c0-8.07-4.2-11.89-12-14.73-3.21-1.17-6-2.34-6-5.86V70.5"/><path class="cls-2" d="M76.5,55.5v3.71c0,6.92-6.32,12.38-11.49,12.38S53.5,66.13,53.5,59.21v-7.1c0-3.36,2.3-7.28,5.75-7.28,0,0,10.42,6.91,19.58,5.65"/><path class="cls-2" d="M72.38,75.39a8.17,8.17,0,0,1-14.71,0"/><path class="cls-2" d="M67,64.82a4,4,0,0,1-4.45,0"/><circle class="cls-3" cx="59.5" cy="55.5" r="1.5"/><circle class="cls-3" cx="70.5" cy="55.5" r="1.5"/><path class="cls-4" d="M111.43,102.47l-.34-.1c-2.35,1.37-6.58,2.89-10.25,4.8-6.19,3.23-18.46,8.45-19.73,9-2.14.84-4.58,1.4-14-.73-8.88-2-15.82-3.75-19.53-3.6-1.72.07-14.32,1.77-18.86,2.37l1,5.45s15.73-2.18,18.77-2.3c3.71-.15,10.65,1.58,19.53,3.59,9.42,2.13,11.86,1.57,14,.73,1.27-.49,13.54-5.71,19.73-8.94,5.13-2.68,11.38-4.58,12-6.39S113.05,103,111.43,102.47Z"/><polyline class="cls-2" points="21.5 124.5 31.21 121 24.33 91.19 13.5 94.5"/><path class="cls-2" d="M26.47,93.24c6.3-2,8.39-3.81,12.26-6.13C43.84,84,50,83,54.06,85.06c2.58,1.29,15.2,6.76,23.39,11.06a5.53,5.53,0,0,1,2.31,7.44,4.94,4.94,0,0,1-5.28,2.64"/><path class="cls-2" d="M60.38,100.63l12.07,4.87c11.24,5.11,26.48-7.39,38.6-3.19,1.8.63,3.34,2.23,2.62,4.26s-7.66,4.13-13.36,7.1c-6.89,3.59-17.2,8.28-18.61,8.83-2.38.94-5.09,1.56-15.56-.81-9.87-2.23-17.59-4.16-21.71-4-3.39.14-13.09,1.45-13.09,1.45"/></g></svg>