<?xml version="1.0" ?><svg viewBox="0 0 64 64" xmlns="http://www.w3.org/2000/svg"><defs><style>.cls-1{fill:#0072ff;}</style></defs><title/><g data-name="Layer 2" id="Layer_2"><path class="cls-1" d="M54.8,24.55A22.11,22.11,0,0,0,34.61,4.07C22.35,3.11,12.54,12.31,10.94,24h0L9.17,35.83A1.89,1.89,0,0,0,11,38h1.12a1.79,1.79,0,0,1,1.73,1.31l2,7.17A4.81,4.81,0,0,0,20.5,50h7.39a1.45,1.45,0,0,1,1.43,1.2l1.32,7.58A1.47,1.47,0,0,0,32.08,60H53.5a1.17,1.17,0,0,0,1.16-1.34L52.41,42.89a19,19,0,0,1,1.08-9.26A22,22,0,0,0,54.8,24.55Zm-12.52-.08-7,7a1.8,1.8,0,0,1-2.55,0l-6.84-6.84a5.18,5.18,0,0,1-.38-7.06,5,5,0,0,1,7.24-.19L34,18.67,35,17.62a5.18,5.18,0,0,1,7.06-.38A5,5,0,0,1,42.28,24.48Z"/></g></svg>