<?xml version="1.0" ?><svg height="128" viewBox="0 0 128 128" width="128" xmlns="http://www.w3.org/2000/svg"><defs><style>.cls-1{fill:#79c651;}.cls-2{fill:none;stroke:#252d32;stroke-linecap:round;stroke-linejoin:round;stroke-width:3px;}.cls-3{fill:#ffc960;}.cls-4{fill:#fff;}</style></defs><title/><g id="Icons"><path class="cls-1" d="M72,113l-4,9s-26.54-1-38-5c-3.77-1.3-5-3.79-5-6,0-4,5.09-6,11-8,12-4,31-8,31-8l10-1s23.47,6.75,26,10c7,9-2,14-5,14-.32,0-3.8-.83-8-2-2.6-.73-5.52-2-8-2l-4,2Z"/><line class="cls-2" x1="4.5" x2="123.5" y1="122.5" y2="122.5"/><path class="cls-2" d="M51.5,94.5s-15.77,3.63-24,8c-4.38,2.33-5.69,10.64-.17,13.47,10.18,5.23,47.17,6.53,47.17,6.53s23,.43,24-1c.57-.81-1.28-5-6-5-3,0-6.08-1.3-9-2-3.62-.87-3.34,1.81-6,1s-22.74-13-37-8"/><path class="cls-2" d="M51.5,69.5s3.72,18.79,0,25"/><path class="cls-2" d="M51.5,69.5,43.78,84.76a7.43,7.43,0,0,1-6.93,4.74H14.5s-.41.55-3,1c-2.9.5-7.59,1.37-8-1s3-3,3-3"/><path class="cls-2" d="M65.71,109.34c7.14-2.52,15.73-4.32,22.86-1.84"/><path class="cls-2" d="M77.57,94.5s15.77,3.63,24,8c4.38,2.33,5.69,10.64.16,13.47"/><path class="cls-2" d="M77.57,94.5c-3.73-6.21,0-25,0-25"/><path class="cls-2" d="M77.57,69.5l7.71,15.26a7.44,7.44,0,0,0,6.93,4.74h22.36s.4.55,3,1c2.89.5,7.59,1.37,8-1s-3-3-3-3"/><path class="cls-2" d="M71.5,53.4s7.07.1,11,5.56c2.4,3.29,6,12.54,8.73,18.53A5.9,5.9,0,0,0,96,81.42l19.31,2.36,4.28-1.28"/><path class="cls-2" d="M60.5,47.5v2c0,2.94-3.17,3.55-5,4a13.88,13.88,0,0,0-9,5.46c-2.4,3.29-6,12.54-8.72,18.53a5.93,5.93,0,0,1-4.7,3.93L13.78,83.78,9.5,82.5"/><path class="cls-2" d="M73.55,53.92c-2.71-1-5-2-5-4.91V48.5"/><path class="cls-2" d="M74.5,37.5c0,5.77-5.58,11.21-10,11.21s-10-5.44-10-11.21v-4s6.63-2.33,10-7c3.37,4.2,10,7,10,7Z"/><path class="cls-2" d="M72,54.57a7.72,7.72,0,0,1-15,0"/><path class="cls-2" d="M83.47,52.1a6.24,6.24,0,0,0-4.37-6.32A5.12,5.12,0,0,0,80.79,41c-.26-1.24-.63-3.16-1-4.38-.89-3.25.49-4,0-7.83-.64-4.71-4.59-12-15.29-10.29-10.7-1.74-14.65,5.58-15.29,10.29-.52,3.86.86,4.58,0,7.83-.34,1.22-.71,3.14-1,4.38a5.12,5.12,0,0,0,1.69,4.78,6.24,6.24,0,0,0-4.37,6.32"/><line class="cls-2" x1="58.5" x2="76.5" y1="94.5" y2="94.5"/><path class="cls-2" d="M67.5,34.5h-.63a1.37,1.37,0,0,0-1.37,1.37v4.66a1,1,0,0,1-1,1h-1"/><line class="cls-2" x1="42.5" x2="48.5" y1="69.5" y2="73.5"/><line class="cls-2" x1="86.5" x2="80.5" y1="69.5" y2="73.5"/><path class="cls-3" d="M23.5,12c11.82,0,21.41,7.31,21.41,16.32,0,5.42-3.47,10.22-8.8,13.19A35.33,35.33,0,0,0,39,50c-3.75-.54-7.51-2.51-11.87-5.59a28.94,28.94,0,0,1-3.65.24c-11.82,0-21.41-7.31-21.41-16.33S11.68,12,23.5,12Z"/><path class="cls-1" d="M105.5,12c-11.82,0-21.41,7.31-21.41,16.32,0,5.42,3.47,10.22,8.8,13.19A35.33,35.33,0,0,1,90,50c3.75-.54,7.51-2.51,11.87-5.59a28.94,28.94,0,0,0,3.65.24c11.82,0,21.41-7.31,21.41-16.33S117.32,12,105.5,12Z"/><polygon class="cls-4" points="102.42 39.43 114 27 107.93 27 111.72 19 103.31 19 98.35 31 103.51 31 102.42 39.43"/><path class="cls-4" d="M23.5,31A2.5,2.5,0,0,1,21,28.5v-9a2.5,2.5,0,0,1,5,0v9A2.5,2.5,0,0,1,23.5,31Z"/><circle class="cls-4" cx="23.5" cy="36.5" r="2.5"/></g></svg>