<?xml version="1.0" ?><!DOCTYPE svg  PUBLIC '-//W3C//DTD SVG 1.1//EN'  'http://www.w3.org/Graphics/SVG/1.1/DTD/svg11.dtd'><svg height="512px" id="Layer_1" style="enable-background:new 0 0 512 512;" version="1.1" viewBox="0 0 512 512" width="512px" xml:space="preserve" xmlns="http://www.w3.org/2000/svg" xmlns:xlink="http://www.w3.org/1999/xlink"><style type="text/css">
<![CDATA[
	.st0{fill-rule:evenodd;clip-rule:evenodd;fill:#319997;}
]]>
</style><path class="st0" d="M325.022,267.624c0.089-11.16,9.208-20.134,20.374-20.039c11.159,0.089,20.128,9.208,20.038,20.369  c-0.09,11.165-9.209,20.134-20.368,20.044C333.901,287.908,324.927,278.784,325.022,267.624 M393.726,363.098  c13.715-13.485,22.275-32.193,22.443-52.947c0.167-20.743-8.091-39.597-21.576-53.295c-13.48-13.709-32.199-22.269-52.942-22.439  c-20.743-0.168-39.603,8.087-53.306,21.567c-12.894,12.692-21.347,30.013-22.314,49.308c-0.19,3.83,3.819,3.528,7.274,0.576  c5.144-4.383,10.478-7.101,16.08-3.377c5.814,4.719,6.832,11.07,3.304,18.473c-3.125,5.524-6.731,11.585-7.938,15.37  c-1.572,4.921,3.835,9.601,9.852,3.159c4.528-4.842,8.185-16.008,13.502-18.932c12.451-6.844,32.646,5.267,37.019,11.552  c1.604-1.298,4.445-17.294,2.029-17.813c-3.22,1.699-9.359,1.084-19.876-3.461c-8.75-3.785-13.189-8.403-11.087-14.397  c6.245-10.976,15.163-3.299,27.469-0.05c8.264,2.286,12.675-10.557,19.391-12.346c30.996-8.264,34.379,56.118,7.838,73.328  c-5.076,3.287-14.051,6.206-23.628,4.534c-16.516-2.88-19.071-10.126-23.142,4.054c-1.168,4.087-2.795,7.934-9.533,6.396  c-10.176-2.314-5.691-15.442-3.197-25.159c3.103-12.1,9.572-14.638,17.941-13.989c3.746,0.285,8.728,2.226,13.24,3.5  c-4.496-6.284-18.211-14.381-29.203-12.155c-6.217,0.895-7.727,12.038-13.821,18.495c-10.572,11.21-30.343,1.723-15.8-18.993  c2.236-3.192,3.707-6.178,4.507-8.761c2.768-8.99-4.104-11.764-12.211-5.161c-4.898,4.121-7.207,5.697-9.808,6.413  c1.639,17.725,9.438,33.682,21.252,45.69c13.48,13.699,32.199,22.265,52.947,22.432  C361.175,384.836,380.027,376.584,393.726,363.098z M153.403,70.834c-1.784,24.958-9.824,55.548-2.158,89.036  c3.058,16.052,9.589,37.891,16.052,51.592c21.034,44.595,30.494,74.378,4.825,119.627c-6.91,12.194-17.131,25.881-24.143,38.78  c-12.669,23.314-17.925,51.393-13.994,77.744c0.195,1.297,0.408,2.605,0.632,3.902c-15.018-9.349-28.878-20.368-41.318-32.809  c-41.637-41.643-67.396-99.17-67.396-162.713c0-63.537,25.759-121.066,67.396-162.701c11.495-11.498,24.204-21.78,37.913-30.645  C151.821,49.319,153.576,68.357,153.403,70.834z M256,0c141.388,0,256,114.612,256,255.994C512,397.383,397.388,512,256,512  C114.618,512,0,397.383,0,255.994C0,114.612,114.618,0,256,0z M336.937,471.453c-5.58-32.506-0.095-45.164,27.475-61.726  c38.68-23.236,58.36-53.747,62.811-84.962c2.964-0.403,5.245-2.818,5.245-5.737c0-2.604-1.806-4.808-4.294-5.535  c1.252-46.719-30.461-93.251-82.715-117.757c-8.912-4.747-14.822-5.183-13.162-12.664c1.963-8.845,1.924-15.071-1.09-23.114  c-4.859-12.963-38.467-39.881-53.406-51.676c-39.222-29.605-32.73-69.227-7.297-81.932c57.768,3.592,109.76,28.498,148.204,66.942  c41.637,41.634,67.39,99.164,67.39,162.701c0,63.543-25.753,121.07-67.39,162.713C395.733,441.676,367.929,459.813,336.937,471.453z  "/></svg>