<?xml version="1.0" ?><svg enable-background="new 0 0 128 128" id="Layer_1" version="1.1" viewBox="0 0 128 128" xml:space="preserve" xmlns="http://www.w3.org/2000/svg" xmlns:xlink="http://www.w3.org/1999/xlink"><g><g><g><g><g><circle cx="64" cy="64" fill="#2979A2" r="64"/></g></g></g><g><g><g><path d="M128,64c0,15.56-5.55,29.82-14.77,40.91l-97.05,1.63C9.68,99.25,4.83,90.46,2.22,80.75       c0.92-0.98,2.15-1.95,4.08-2.9c6.71-3.3,8.48,0.29,15.2-3.01c6.71-3.3,4.94-6.89,11.65-10.19c6.72-3.3,8.48,0.29,15.19-3.01       c6.71-3.3,4.95-6.89,11.66-10.19c6.71-3.3,8.47,0.29,15.18-3.01s4.95-6.89,11.66-10.19c6.71-3.3,8.48,0.29,15.19-3.01       c6.71-3.3,4.94-6.89,11.65-10.19c0.28-0.14,0.55-0.26,0.82-0.37C122.96,35.53,128,49.17,128,64z" fill="#65C7CF"/></g></g></g><g><g><g><circle cx="26.407" cy="61.976" fill="#BFC4D8" r="9.781"/></g></g></g><g><g><g><circle cx="41.632" cy="61.857" fill="#BFC4D8" r="9.781"/></g></g></g><g><g><g><g><rect fill="#173842" height="28.59" width="2" x="37.514" y="56.91"/></g></g></g></g><g><g><g><g><path d="M38.514,69.19h-3.247c-4.283,0-7.768-3.484-7.768-7.768V58.41h2v3.013c0,3.18,2.587,5.768,5.768,5.768        h3.247V69.19z" fill="#173842"/></g></g></g></g><g><g><g><g><path d="M38.527,77.227l-0.013-2h0.013c2.88,0,5.223-2.343,5.223-5.223V58.41h2v11.593        C45.75,73.986,42.51,77.227,38.527,77.227z" fill="#173842"/></g></g></g></g><g><g><g><path d="M55.75,54.43c0,1.78-0.52,3.44-1.42,4.83c-1.59,2.51-4.39,4.17-7.58,4.17c-3.89,0-7.2-2.47-8.45-5.93       C36.93,60.73,33.73,63,30,63c-4.44,0-8.12-3.22-8.86-7.45c-3.52-2.02-5.34-6.25-4.15-10.32c1.21-4.12,5.11-6.72,9.23-6.44       c0.74-1.96,2.13-3.58,3.92-4.62c-0.23-1.31-0.18-2.69,0.22-4.06c1.4-4.77,6.4-7.5,11.17-6.11c0.62,0.18,1.2,0.42,1.74,0.72       c3.67,1.97,5.58,6.3,4.37,10.45c-0.16,0.53-0.36,1.03-0.6,1.5c3.28,1.35,5.59,4.57,5.59,8.33c0,0.82-0.12,1.61-0.32,2.36       C54.4,49.01,55.75,51.56,55.75,54.43z" fill="#FFFFFF"/></g></g></g><g opacity="0.5"><g><g><circle cx="95.068" cy="58.019" fill="#FFFFFF" r="13.902"/></g></g></g><g><g><g><path d="M127.99,64.99C127.46,99.88,99.02,128,64,128c-26.23,0-48.78-15.78-58.66-38.36       c8.98-0.45,42.16-3.04,68.99-17.31C93.83,61.96,114.88,62.85,127.99,64.99z" fill="#B99AC8"/></g></g></g><g><g><g><path d="M126.81,76.33C121.07,105.78,95.13,128,64,128c-13.94,0-26.83-4.45-37.34-12.01       c12.45-2.06,29.15-7.21,43.51-19.81C89.04,79.63,117.41,76.81,126.81,76.33z" fill="#65C7CF"/></g></g></g></g><g><g><circle cx="76.433" cy="23.297" fill="#FFFFFF" r="1.681"/></g><g><circle cx="87.213" cy="19.936" fill="#FFFFFF" r="1.681"/></g><g><circle cx="73.071" cy="47.071" fill="#FFFFFF" r="1.681"/></g><g><circle cx="100.284" cy="37.167" fill="#FFFFFF" r="1.681"/></g><g><circle cx="82.393" cy="33.644" fill="#FFFFFF" r="1.681"/></g><g><circle cx="65.95" cy="32.804" fill="#EDE8EE" r="0.84"/></g><g><circle cx="79.457" cy="41.4" fill="#FFFFFF" r="0.84"/></g><g><circle cx="95.574" cy="25.055" fill="#EDE8EE" r="0.84"/></g></g><g><g><circle cx="32.41" cy="85.325" fill="#FFFFFF" r="1.681"/></g><g><circle cx="43.19" cy="81.964" fill="#FFFFFF" r="1.681"/></g><g><circle cx="29.048" cy="109.099" fill="#FFFFFF" r="1.681"/></g><g><circle cx="56.261" cy="99.195" fill="#FFFFFF" r="1.681"/></g><g><circle cx="38.37" cy="95.672" fill="#FFFFFF" r="1.681"/></g><g><circle cx="21.927" cy="94.831" fill="#EDE8EE" r="0.84"/></g><g><circle cx="35.434" cy="103.428" fill="#FFFFFF" r="0.84"/></g><g><circle cx="51.551" cy="87.082" fill="#EDE8EE" r="0.84"/></g></g><g><g><circle cx="59.686" cy="66.124" fill="#FFFFFF" r="1.681"/></g><g><circle cx="70.466" cy="62.762" fill="#FFFFFF" r="1.681"/></g><g><circle cx="56.325" cy="89.898" fill="#FFFFFF" r="1.681"/></g><g><circle cx="83.537" cy="79.994" fill="#FFFFFF" r="1.681"/></g><g><circle cx="65.647" cy="76.471" fill="#FFFFFF" r="1.681"/></g><g><circle cx="49.204" cy="75.63" fill="#EDE8EE" r="0.84"/></g><g><circle cx="62.71" cy="84.227" fill="#FFFFFF" r="0.84"/></g><g><circle cx="78.828" cy="67.881" fill="#EDE8EE" r="0.84"/></g></g></g></svg>