<?xml version="1.0" encoding="UTF-8"?>
<svg width="880" height="880" version="1.1" viewBox="0 0 880 880" xml:space="preserve" xmlns="http://www.w3.org/2000/svg" xmlns:cc="http://creativecommons.org/ns#" xmlns:dc="http://purl.org/dc/elements/1.1/" xmlns:rdf="http://www.w3.org/1999/02/22-rdf-syntax-ns#"><metadata><rdf:RDF><cc:Work rdf:about=""><dc:format>image/svg+xml</dc:format><dc:type rdf:resource="http://purl.org/dc/dcmitype/StillImage"/><dc:title/></cc:Work></rdf:RDF></metadata><defs><clipPath id="clipPath26"><path d="m0 660h660v-660h-660z"/></clipPath></defs><g transform="matrix(1.3333 0 0 -1.3333 0 880)"><g clip-path="url(#clipPath26)" fill-rule="evenodd"><path d="m262.79 382.88h137.92c18.436 0 33.522-15.689 33.522-34.867v-56.932h-204.97v56.932c0 19.178 15.085 34.867 33.526 34.867" fill="#e9541e"/><path d="m228.56 346.35c10.162 4.4114 20.331 6.5335 31.345 6.5335h143.68c11.013 0 21.184-2.1221 31.347-6.5335l24.934-10.832c39.365-17.099 60.353-61.525 49.314-104.38l-44.198-171.55c-8.6892-33.732-37.542-56.759-71.118-56.759h-124.24c-33.577 0-62.431 23.027-71.12 56.759l-44.198 171.55c-11.04 42.857 9.9506 87.284 49.314 104.38z" fill="#e9541e"/><path d="m476.81 105.46-11.819-45.868c-8.6892-33.732-37.542-56.759-71.118-56.759h-124.24c-33.577 0-62.431 23.027-71.12 56.759l-11.818 45.868c39.627 19.322 90.094 30.906 145.06 30.906 54.963 0 105.43-11.584 145.06-30.906" fill="#d64520"/><path d="m228.56 346.35c10.162 4.4114 20.331 6.5335 31.345 6.5335h143.68c11.013 0 21.184-2.1221 31.347-6.5335l24.934-10.832c27.273-11.845 45.719-36.81 50.814-65.283-41.167-20.619-106-33.923-178.94-33.923-72.94 0-137.77 13.304-178.94 33.923 5.0928 28.472 23.541 53.437 50.812 65.283z" fill="#f3622d"/><path d="m241.48 314.18-24.936-10.83c-23.904-10.383-36.555-37.158-29.848-63.185l44.196-171.55c4.7639-18.49 20.331-30.914 38.738-30.914h124.24c18.407 0 33.972 12.424 38.738 30.914l44.196 171.55c6.7048 26.027-5.944 52.802-29.85 63.185l-24.936 10.83c-6.1193 2.6578-11.794 3.84-18.427 3.84h-143.68c-6.6326 0-12.307-1.1823-18.427-3.84" fill="#5c1e62"/><path d="m241.48 314.18-24.936-10.83c-18.672-8.1105-30.479-26.228-31.554-46.171 39.421-12.999 90.694-20.862 146.76-20.862 56.064 0 107.34 7.8624 146.76 20.862-1.0771 19.943-12.882 38.06-31.556 46.171l-24.936 10.83c-6.1193 2.6578-11.794 3.84-18.427 3.84h-143.68c-6.6326 0-12.307-1.1823-18.427-3.84" fill="#691f70"/><path d="m273.39 26.875h116.71c3.441 0 6.2548-2.9284 6.2548-6.5072 0-3.5788-2.8139-6.5091-6.2548-6.5091h-116.71c-3.4392 0-6.2566 2.9303-6.2566 6.5091 0 3.5788 2.8175 6.5072 6.2566 6.5072" fill="#a32f1f"/><path d="m265.56 206.33c16.963 0 32.568-14.435 34.681-32.076l5.3729-44.855c2.1145-17.638-10.034-32.072-26.995-32.072-16.963 0-32.57 14.434-34.683 32.072l-5.3729 44.855c-2.1145 17.64 10.036 32.076 26.996 32.076m-10.153 84.75c16.961 0 32.568-14.437 34.683-32.079l0.28013-2.3439c2.1145-17.64-10.036-32.076-26.998-32.076-16.961 0-32.566 14.435-34.681 32.076l-0.28012 2.3439c-2.1127 17.642 10.036 32.079 26.996 32.079m9.1573-223.74h134.36c4.9482 0 8.9928-4.2066 8.9928-9.353 0-5.1445-4.0446-9.353-8.9928-9.353h-134.36c-4.9482 0-8.9928 4.2085-8.9928 9.353 0 5.1464 4.0446 9.353 8.9928 9.353" fill="#7d1d86"/><path d="m255.41 291.08c16.961 0 32.568-14.437 34.683-32.079l0.28013-2.3439c0.83132-6.9283-0.53856-13.36-3.5368-18.618-19.251 1.4905-37.603 3.9303-54.732 7.1782-1.7404 3.5581-2.9277 7.4151-3.4102 11.439l-0.28012 2.3439c-2.1127 17.642 10.036 32.079 26.996 32.079" fill="#931c92"/><path d="m397.81 206.33c-16.963 0-32.568-14.432-34.683-32.072l-5.3729-44.855c-2.1127-17.64 10.034-32.072 26.996-32.072 16.963 0 32.568 14.432 34.681 32.072l5.3765 44.855c2.1108 17.64-10.036 32.072-26.998 32.072" fill="#411743"/><path d="m259.93 644.25c0 15.244 143.64 16.445 143.64 0v-261.37h-143.64z" fill="#2d2b2d"/><path d="m295.3 488.7c10.025 0 18.228-8.5297 18.228-18.956v-6.8568c0-10.428-8.203-18.958-18.228-18.958-10.025 0-18.226 8.5297-18.226 18.958v6.8568c0 10.426 8.2012 18.956 18.226 18.956m0 138.57c10.025 0 18.228-8.5297 18.228-18.956v-84.881c0-10.428-8.203-18.958-18.228-18.958-10.025 0-18.226 8.5297-18.226 18.958v84.881c0 10.426 8.2012 18.956 18.226 18.956" fill="#46454b"/><path d="m259.93 382.88h143.64v26.813h-143.64z" fill="#252324"/></g></g></svg>
